<svg width="19" height="20" viewBox="0 0 19 20" fill="none" xmlns="http://www.w3.org/2000/svg">
<path d="M17.375 0.9375C18.0723 0.9375 18.6875 1.55273 18.6875 2.29102V18C18.6875 18.7383 18.0723 19.3125 17.375 19.3125H1.58398C0.886719 19.3125 0.3125 18.7383 0.3125 18V2.29102C0.3125 1.55273 0.886719 0.9375 1.58398 0.9375H17.375ZM5.84961 16.6875V7.95117H3.14258V16.6875H5.84961ZM4.49609 6.7207C5.35742 6.7207 6.05469 6.02344 6.05469 5.16211C6.05469 4.30078 5.35742 3.5625 4.49609 3.5625C3.59375 3.5625 2.89648 4.30078 2.89648 5.16211C2.89648 6.02344 3.59375 6.7207 4.49609 6.7207ZM16.0625 16.6875V11.8887C16.0625 9.55078 15.5293 7.70508 12.7812 7.70508C11.4688 7.70508 10.5664 8.44336 10.1973 9.14062H10.1562V7.95117H7.57227V16.6875H10.2793V12.3809C10.2793 11.2324 10.4844 10.125 11.9199 10.125C13.3145 10.125 13.3145 11.4375 13.3145 12.4219V16.6875H16.0625Z" fill="#0A0B5C"/>
</svg>
