<svg width="27" height="21" viewBox="0 0 27 21" fill="none" xmlns="http://www.w3.org/2000/svg">
<path d="M0 20.46V14.94H1.5C3.02 14.94 4.09999 14.62 4.73999 13.98C5.41999 13.34 5.75999 12.44 5.75999 11.28V9.84H0.899994V0H11.64V11.7C11.64 15.02 10.84 17.32 9.24001 18.6C7.64001 19.84 5.53999 20.46 2.93999 20.46H0ZM15.24 20.46V14.94H16.74C18.26 14.94 19.34 14.62 19.98 13.98C20.66 13.34 21 12.44 21 11.28V9.84H16.14V0H26.88V11.7C26.88 15.02 26.08 17.32 24.48 18.6C22.88 19.84 20.78 20.46 18.18 20.46H15.24Z" fill="#C5D8F6"/>
</svg>
