<svg width="20" height="20" viewBox="0 0 20 20" fill="none" xmlns="http://www.w3.org/2000/svg">
<path d="M18.3333 8.05833C18.2807 7.90591 18.185 7.77202 18.0578 7.67292C17.9306 7.57381 17.7773 7.51375 17.6167 7.5L12.875 6.80833L10.75 2.5C10.6818 2.35911 10.5752 2.24028 10.4426 2.15714C10.3099 2.074 10.1565 2.02991 10 2.02991C9.84345 2.02991 9.69007 2.074 9.55743 2.15714C9.42478 2.24028 9.31824 2.35911 9.25 2.5L7.125 6.8L2.38333 7.5C2.2291 7.52192 2.0841 7.58663 1.96479 7.6868C1.84548 7.78696 1.75663 7.91856 1.70833 8.06667C1.66412 8.21139 1.66015 8.36543 1.69686 8.51224C1.73356 8.65906 1.80955 8.7931 1.91667 8.9L5.35833 12.2333L4.525 16.9667C4.49525 17.1229 4.51083 17.2844 4.56989 17.432C4.62896 17.5797 4.72904 17.7074 4.85833 17.8C4.98435 17.8901 5.13298 17.9433 5.28754 17.9536C5.4421 17.9639 5.59648 17.9309 5.73333 17.8583L10 15.6333L14.25 17.8667C14.367 17.9326 14.4991 17.9671 14.6333 17.9667C14.8099 17.9673 14.982 17.9119 15.125 17.8083C15.2543 17.7157 15.3544 17.588 15.4134 17.4404C15.4725 17.2927 15.4881 17.1312 15.4583 16.975L14.625 12.2417L18.0667 8.90833C18.187 8.8064 18.2759 8.67242 18.3231 8.52196C18.3703 8.37149 18.3739 8.21073 18.3333 8.05833ZM13.2083 11.3917C13.1106 11.4862 13.0375 11.6032 12.9954 11.7325C12.9532 11.8618 12.9434 11.9994 12.9667 12.1333L13.5667 15.625L10.4333 13.9583C10.3128 13.8941 10.1783 13.8606 10.0417 13.8606C9.90507 13.8606 9.77057 13.8941 9.65 13.9583L6.51667 15.625L7.11667 12.1333C7.13995 11.9994 7.1301 11.8618 7.08797 11.7325C7.04585 11.6032 6.97273 11.4862 6.875 11.3917L4.375 8.89167L7.88333 8.38333C8.01833 8.36455 8.14667 8.31295 8.25708 8.23304C8.3675 8.15313 8.45663 8.04736 8.51667 7.925L10 4.75L11.5667 7.93333C11.6267 8.0557 11.7158 8.16147 11.8263 8.24138C11.9367 8.32128 12.065 8.37289 12.2 8.39167L15.7083 8.9L13.2083 11.3917Z" fill="#FF9901"/>
</svg>
