<svg width="11" height="10" viewBox="0 0 11 10" fill="none" xmlns="http://www.w3.org/2000/svg">
<path d="M10.783 0.516667C10.6984 0.313042 10.5366 0.151229 10.333 0.0666666C10.2328 0.0239658 10.1252 0.00131666 10.0163 0H1.68295C1.46194 0 1.24998 0.0877975 1.0937 0.244078C0.937417 0.400358 0.84962 0.61232 0.84962 0.833333C0.84962 1.05435 0.937417 1.26631 1.0937 1.42259C1.24998 1.57887 1.46194 1.66667 1.68295 1.66667H8.00795L1.09129 8.575C1.01318 8.65247 0.951184 8.74464 0.908877 8.84619C0.86657 8.94774 0.844788 9.05666 0.844788 9.16667C0.844788 9.27668 0.86657 9.3856 0.908877 9.48715C0.951184 9.5887 1.01318 9.68086 1.09129 9.75833C1.16876 9.83644 1.26092 9.89844 1.36247 9.94074C1.46402 9.98305 1.57294 10.0048 1.68295 10.0048C1.79296 10.0048 1.90188 9.98305 2.00343 9.94074C2.10498 9.89844 2.19715 9.83644 2.27462 9.75833L9.18295 2.84167V9.16667C9.18295 9.38768 9.27075 9.59964 9.42703 9.75592C9.58331 9.9122 9.79527 10 10.0163 10C10.2373 10 10.4493 9.9122 10.6055 9.75592C10.7618 9.59964 10.8496 9.38768 10.8496 9.16667V0.833333C10.8483 0.724436 10.8257 0.616852 10.783 0.516667V0.516667Z" fill="white"/>
</svg>
