<svg width="111.750977" height="36.417480" viewBox="0 0 111.751 36.4175" fill="none" xmlns="http://www.w3.org/2000/svg" xmlns:xlink="http://www.w3.org/1999/xlink">
	<desc>
			Created with Pixso.
	</desc>
	<defs/>
	<path id="Vector" d="M11.41 0C12.12 0.15 12.84 0.29 13.55 0.46C14.11 0.6 14.66 0.78 15.21 0.94C15.9 1.14 16.6 1.33 17.28 1.54C18.32 1.85 19.34 2.17 20.37 2.48C21.02 2.68 21.68 2.86 22.33 3.05C23.39 3.36 24.44 3.69 25.5 4C26.22 4.21 26.94 4.39 27.65 4.61C28.64 4.91 29.63 5.24 30.62 5.54C31.03 5.66 31.44 5.75 31.85 5.87C32.54 6.07 33.22 6.29 33.91 6.5C34.44 6.66 34.98 6.82 35.56 6.99C35.85 6.8 36.19 6.55 36.55 6.35C37.5 5.81 38.88 6.11 39.58 6.98C40.33 7.92 40.52 8.97 40.4 10.16C40.31 11.06 39.91 11.78 39.43 12.5C39.46 12.53 39.48 12.56 39.5 12.58C39.72 12.41 39.97 12.26 40.14 12.05C40.4 11.73 40.61 11.38 40.8 11.02C40.99 10.64 41.18 10.29 41.76 10.31C41.53 10.11 41.34 10.01 41.27 9.86C41.19 9.7 41.22 9.48 41.22 9.29C41.22 8.99 41.39 8.89 41.65 8.97C42.36 9.19 43.07 9.43 43.78 9.65C44.43 9.85 45.09 10.04 45.74 10.23C46.15 10.34 46.55 10.46 46.96 10.57C47.04 10.6 47.13 10.6 47.21 10.62C47.23 9.78 46.33 8.46 45.51 8.26C44.53 8.02 43.58 7.65 42.61 7.35C42.37 7.27 42.12 7.21 41.86 7.17C41.16 7.05 40.7 6.56 40.21 6.11C40.03 5.95 39.85 5.79 39.67 5.62C39.7 5.58 39.72 5.54 39.75 5.5C40.08 5.56 40.41 5.59 40.73 5.69C41.64 5.97 42.52 6.33 43.44 6.56C43.97 6.69 44.51 6.88 45.11 6.76C45.75 6.64 46.42 6.68 47.08 6.62C48.47 6.48 49.87 6.3 51.27 6.16C52.59 6.03 53.92 5.93 55.24 5.81C56.26 5.73 57.27 5.66 58.29 5.56C59.6 5.43 60.9 5.27 62.21 5.13C63.71 4.97 65.21 4.83 66.71 4.68C66.98 4.65 67.25 4.65 67.52 4.62C69.12 4.46 70.7 4.29 72.3 4.15C73.74 4.02 75.18 3.92 76.62 3.79C78.31 3.64 80 3.47 81.7 3.3C82.69 3.21 83.67 3.12 84.66 3.02C85.02 2.98 85.37 2.89 85.73 2.87C86.59 2.8 87.41 3.02 88.23 3.26C89.31 3.58 90.42 3.84 91.51 4.13C92.13 4.29 92.75 4.46 93.36 4.66C93.5 4.7 93.6 4.86 93.77 5C93.63 5.09 93.56 5.17 93.47 5.19C92.69 5.39 91.9 5.56 91.12 5.76C90.66 5.88 90.2 6.03 89.74 6.15C89.22 6.28 88.69 6.38 88.17 6.52C87.34 6.72 86.53 6.94 85.71 7.15C85.18 7.28 84.65 7.39 84.13 7.53C83.21 7.76 82.29 8.01 81.37 8.23C80.49 8.45 79.59 8.63 78.71 8.85C77.91 9.04 77.11 9.25 76.31 9.46C75.5 9.66 74.7 9.88 73.89 10.09C72.97 10.33 72.05 10.57 71.13 10.79C70.23 11.01 69.32 11.19 68.42 11.41C67.74 11.58 67.07 11.76 66.41 11.96C65.7 12.18 65 12.42 64.29 12.66C63.59 12.89 62.89 13.14 62.18 13.36C61.49 13.58 60.8 13.77 60.11 13.97C60.04 13.99 59.99 14.07 59.94 14.13C59.99 14.18 60.04 14.27 60.1 14.29C61.07 14.57 62.03 14.84 62.99 15.12C63.68 15.33 64.37 15.54 65.04 15.79C65.44 15.95 65.71 15.66 66.01 15.54C66.69 15.27 67.35 14.92 68.02 14.59C68.78 14.22 69.53 13.83 70.28 13.45C71.2 12.97 72.12 12.5 73.04 12.02C73.71 11.67 74.38 11.32 75.04 10.95C75.58 10.65 76.04 10.94 76.52 11.08C77.26 11.31 77.99 11.54 78.72 11.78C79.15 11.91 79.57 12.05 79.99 12.21C80.25 12.31 80.28 12.47 80.13 12.73C79.47 13.88 78.83 15.05 78.18 16.21C78.03 16.49 77.84 16.72 77.48 16.75C76.04 16.85 74.6 16.96 73.15 17.06C73.05 17.07 72.93 16.99 72.82 16.95C72.87 16.84 72.88 16.7 72.95 16.63C74.17 15.45 75.4 14.29 76.63 13.13C76.7 13.06 76.81 13.03 76.95 12.96C76.89 12.86 76.85 12.72 76.77 12.7C76.22 12.52 75.7 12.35 75.12 12.71C74.35 13.18 73.52 13.55 72.72 13.98C72.22 14.24 71.74 14.53 71.24 14.8C70.17 15.37 69.09 15.94 68.02 16.51C67.15 16.97 66.3 17.45 65.42 17.9C65.26 17.98 65.01 18.01 64.84 17.96C63.92 17.69 63.01 17.37 62.09 17.09C61.16 16.8 60.21 16.55 59.28 16.28C58.33 16.01 57.38 15.74 56.43 15.45C55.97 15.31 55.54 15.45 55.11 15.57C54.78 15.67 54.47 15.82 54.16 15.95C54.17 16 54.17 16.04 54.18 16.08C54.84 16.31 55.5 16.54 56.17 16.77C56.16 16.8 56.15 16.83 56.14 16.86C55.73 16.75 55.31 16.61 54.89 16.52C54.12 16.37 53.39 16.04 52.54 16.41C51.63 16.81 50.63 17 49.67 17.3C48.59 17.64 47.52 18 46.41 18.45C46.85 18.61 47.28 18.79 47.72 18.92C48.47 19.14 49.24 19.32 49.99 19.54C50.74 19.75 51.49 19.99 52.24 20.21C53 20.44 53.76 20.68 54.53 20.89C55.01 21.03 55.51 21.13 56 21.22C56.66 21.34 57.32 21.44 57.98 21.54C59.52 21.76 61.06 22.02 62.61 22.19C64.2 22.36 65.8 22.46 67.4 22.56C68.89 22.66 70.38 22.73 71.88 22.81C72 22.82 72.12 22.8 72.25 22.74C71.8 22.54 71.35 22.32 70.89 22.13C70.14 21.83 69.38 21.55 68.63 21.26C68.05 21.03 67.47 20.79 66.89 20.56C66.4 20.37 65.92 20.17 65.42 19.99C65.21 19.91 64.98 19.88 64.76 19.8C64.58 19.74 64.41 19.65 64.26 19.54C64.22 19.51 64.25 19.27 64.3 19.24C64.94 18.95 65.57 18.6 66.25 18.43C67.09 18.23 67.98 18.19 68.85 18.08C69.13 18.04 69.41 17.99 69.69 17.97C71.05 17.85 72.42 17.74 73.78 17.61C75.44 17.46 77.09 17.28 78.75 17.12C79.8 17.02 80.85 16.92 81.91 16.84C82.33 16.8 82.75 16.79 83.17 16.8C84.28 16.84 85.21 17.44 86.21 17.81C87.04 18.12 87.88 18.41 88.71 18.69C89.45 18.93 90.19 19.16 90.93 19.39C91.32 19.51 91.73 19.59 92.12 19.71C92.91 19.94 93.68 20.18 94.46 20.42C94.77 20.51 95.08 20.59 95.39 20.68C96.11 20.89 96.84 21.09 97.56 21.31C98.13 21.48 98.69 21.69 99.25 21.89C99.24 21.93 99.24 21.97 99.23 22.01C98.77 21.92 98.31 21.84 97.85 21.74C97.36 21.62 96.87 21.47 96.38 21.34C95.47 21.1 94.57 20.86 93.66 20.63C93.24 20.52 92.81 20.44 92.39 20.32C91.57 20.11 90.76 19.88 89.95 19.66C89.59 19.56 89.23 19.46 88.87 19.39C88.08 19.22 87.33 18.82 86.49 19.08C86.18 19.17 85.87 19.25 85.56 19.34C84.77 19.56 83.99 19.8 83.2 20.01C82.81 20.12 82.42 20.19 82.04 20.28C81.26 20.48 80.49 20.67 79.72 20.88C79.42 20.96 79.12 21.07 78.75 21.19C78.87 21.27 78.95 21.37 79.06 21.4C79.46 21.52 79.87 21.62 80.27 21.74C80.7 21.86 81.13 21.98 81.56 22.11C82.03 22.25 82.49 22.39 82.95 22.53C83.39 22.67 83.83 22.81 84.27 22.94C84.69 23.06 85.11 23.16 85.53 23.29C86.29 23.52 87.05 23.75 87.81 23.98C88.13 24.08 88.46 24.18 88.8 24.27C89.45 24.46 90.1 24.63 90.76 24.82C91.55 25.05 92.34 25.31 93.14 25.54C93.83 25.74 94.52 25.92 95.21 26.12C96 26.35 96.78 26.6 97.57 26.83C98.27 27.04 98.97 27.23 99.67 27.44C100.18 27.59 100.68 27.77 101.19 27.93C101.55 28.04 101.91 28.15 102.27 28.26C102.42 28.3 102.55 28.35 102.69 28.4C102.69 28.43 102.68 28.46 102.67 28.5C102 28.33 101.33 28.17 100.66 28.01C100.23 27.91 99.79 27.82 99.36 27.71C98.91 27.58 98.46 27.43 98.01 27.3C97.68 27.2 97.34 27.12 97 27.04C96.25 26.84 95.49 26.66 94.74 26.45C93.96 26.24 93.19 26 92.42 25.77C92.04 25.66 91.65 25.57 91.27 25.47C90.4 25.23 89.54 24.98 88.68 24.74C88.36 24.65 88.03 24.58 87.71 24.49C86.99 24.3 86.27 24.11 85.56 23.9C84.83 23.69 84.1 23.44 83.37 23.23C82.63 23.02 81.88 22.83 81.14 22.63C80.76 22.53 80.38 22.4 80 22.29C79.22 22.06 78.43 21.82 77.64 21.62C77.42 21.56 77.16 21.61 76.88 21.61C76.92 21.72 76.93 21.78 76.96 21.81C77.39 22.13 77.24 22.54 77.1 22.93C76.89 23.55 76.67 24.17 76.41 24.76C76.33 24.97 76.13 25.14 75.94 25.27C75.82 25.36 75.63 25.38 75.46 25.4C74.22 25.53 72.97 25.65 71.73 25.76C70.69 25.86 69.64 25.92 68.6 26.01C68.04 26.05 67.82 26.41 68.02 26.93C68.04 26.99 68.13 27.06 68.21 27.08C68.95 27.29 69.7 27.46 70.43 27.68C71.42 27.97 72.4 28.32 73.39 28.61C74.14 28.84 74.9 29 75.66 29.2C75.96 29.28 76.25 29.38 76.54 29.47C77.28 29.72 78.02 29.97 78.76 30.21C79.13 30.32 79.51 30.38 79.88 30.5C80.42 30.67 80.95 30.86 81.49 31.04C81.48 31.08 81.47 31.12 81.46 31.16C81.06 31.07 80.66 30.99 80.26 30.9C79.73 30.78 79.21 30.66 78.69 30.52C77.89 30.31 77.09 30.08 76.28 29.87C75.89 29.76 75.49 29.68 75.09 29.57C74.19 29.33 73.29 29.06 72.39 28.83C71.6 28.62 70.79 28.45 70 28.26C69.71 28.19 69.43 28.1 69.15 28.01C68.4 27.78 67.64 27.59 66.91 27.31C66.07 27 65.26 26.62 64.44 26.28C64.28 26.22 64.08 26.23 63.9 26.23C62.24 26.21 60.59 26.24 58.93 26.16C57.51 26.09 56.09 25.89 54.67 25.74C53.93 25.65 53.18 25.59 52.46 25.43C51.22 25.15 49.99 24.81 48.76 24.49C48.04 24.3 47.32 24.11 46.6 23.9C45.9 23.7 45.2 23.49 44.5 23.29C43.73 23.07 42.95 22.86 42.17 22.64C41.85 22.55 41.53 22.45 41.21 22.35C40.5 22.13 39.8 21.9 39.08 21.69C38.43 21.49 37.77 21.31 37.11 21.14C36.93 21.09 36.73 21.13 36.51 21.13C36.57 21.43 36.41 21.54 36.16 21.67C35.28 22.11 34.42 22.6 33.55 23.06C32.83 23.44 32.1 23.81 31.36 24.16C30.39 24.62 29.49 25.17 28.68 25.86C28.23 26.24 27.75 26.59 27.29 26.95C27.01 27.18 26.71 27.09 26.41 27.01C25.69 26.83 24.96 26.68 24.25 26.47C23.86 26.35 23.62 26.04 23.56 25.61C23.49 25 23.4 24.39 23.32 23.77C23.23 22.98 23.18 22.18 23.03 21.39C22.99 21.2 22.69 21 22.47 20.89C21.05 20.22 20.56 18.34 21.02 17.04C21.11 16.78 21.41 16.73 21.59 17C22.07 17.71 22.83 17.92 23.58 18.13C23.75 18.18 24.03 18.31 24.11 17.96C24.21 17.57 24.1 17.35 23.77 17.25C22.42 16.84 21.07 16.43 19.72 16.03C19.01 15.82 18.3 15.66 17.6 15.46C16.6 15.17 15.61 14.85 14.62 14.56C13.91 14.34 13.19 14.15 12.48 13.94C11.69 13.71 10.91 13.46 10.12 13.23C9.44 13.03 8.75 12.87 8.08 12.64C7.1 12.3 6.11 11.97 5.17 11.54C3.98 11 2.9 10.25 1.96 9.33C1.41 8.8 0.88 8.25 0.4 7.66C0.2 7.41 0.13 7.06 0 6.75C0 6.39 0 6.02 0 5.66C0.38 4.47 1.2 3.64 2.24 3C3.08 2.48 3.94 1.98 4.79 1.46C5.56 1 6.37 0.63 7.26 0.44C7.87 0.31 8.47 0.15 9.08 0C9.85 0 10.63 0 11.41 0ZM14.9 11.32C15.04 11.56 15.79 11.79 16.14 11.69C15.79 11.32 15.32 11.4 14.89 11.33C14.84 11.27 14.8 11.17 14.74 11.15C14.15 10.96 13.56 10.79 12.97 10.6C12.39 10.42 11.81 10.24 11.22 10.06C10.84 9.95 10.46 9.86 10.08 9.74C9.65 9.61 9.24 9.46 8.82 9.31C8.65 9.25 8.5 9.18 8.33 9.12C7.95 9 7.57 8.89 7.19 8.77C7.18 8.82 7.16 8.87 7.15 8.92C7.55 9.06 7.95 9.19 8.35 9.34C8.7 9.47 9.04 9.63 9.39 9.75C10.25 10.05 11.1 10.33 11.97 10.6C12.34 10.72 12.75 10.76 13.11 10.91C13.69 11.14 14.27 11.32 14.9 11.32ZM34.54 9.39C33.63 9.5 32.77 9.62 31.9 9.72C31.16 9.8 30.41 9.86 29.67 9.95C28.68 10.07 27.7 10.2 26.71 10.33C26.18 10.4 25.64 10.47 25.1 10.54C24.85 10.57 24.59 10.61 24.33 10.63C24.25 10.63 24.14 10.57 24.08 10.51C24.06 10.48 24.12 10.33 24.17 10.29C24.7 9.92 25.23 9.57 25.76 9.21C26.02 9.04 26.29 8.88 26.55 8.71C25.43 8.32 24.35 8.04 23.27 7.75C22.6 7.57 21.93 7.4 21.27 7.2C20.54 6.99 19.83 6.74 19.11 6.53C18.45 6.33 17.78 6.17 17.11 5.97C17.03 5.95 16.97 5.83 16.9 5.75C16.99 5.69 17.07 5.59 17.17 5.58C17.37 5.56 17.59 5.57 17.79 5.62C18.42 5.77 19.05 5.95 19.68 6.11C20.5 6.32 21.33 6.5 22.15 6.72C23.03 6.94 23.9 7.2 24.78 7.44C25.45 7.62 26.12 7.78 26.78 7.99C27.64 8.28 28.49 8.47 29.42 8.29C30.09 8.16 30.79 8.18 31.48 8.13C31.37 7.98 31.25 7.89 31.11 7.85C30.69 7.73 30.27 7.64 29.85 7.52C29.19 7.34 28.54 7.14 27.89 6.94C27.19 6.73 26.5 6.49 25.8 6.29C25.03 6.07 24.26 5.9 23.49 5.67C22.25 5.3 21.02 4.88 19.79 4.51C18.63 4.15 17.48 3.82 16.32 3.48C15.27 3.18 14.21 2.91 13.17 2.58C11.89 2.18 10.58 2.11 9.26 2.18C8.95 2.2 8.63 2.26 8.33 2.5C8.77 2.67 9.27 2.53 9.57 3.08C9.13 3.23 8.75 3.43 8.35 3.48C7.38 3.59 6.4 3.63 5.42 3.7C5.3 3.71 5.14 3.69 5.05 3.75C4.25 4.26 3.46 4.79 2.69 5.33C2.54 5.43 2.47 5.64 2.3 5.87C2.71 5.94 2.99 6 3.28 6.04C3.76 6.11 4.25 6.09 4.7 6.23C5.87 6.59 7.02 7.03 8.18 7.43C8.58 7.56 9 7.65 9.4 7.77C9.88 7.91 10.36 8.06 10.84 8.2C11.54 8.4 12.25 8.59 12.95 8.8C13.39 8.93 13.83 9.08 14.27 9.21C14.99 9.42 15.7 9.61 16.42 9.82C17.52 10.13 18.61 10.45 19.71 10.77C20.38 10.96 21.06 11.1 21.71 11.35C22.18 11.52 22.62 11.65 23.13 11.56C23.75 11.46 24.37 11.39 25 11.31C26.26 11.15 27.53 10.99 28.8 10.85C29.42 10.77 30.06 10.75 30.68 10.68C31.82 10.54 32.96 10.37 34.09 10.24C34.59 10.18 34.61 10.18 34.58 9.68C34.58 9.59 34.56 9.5 34.54 9.39ZM66.22 5.9C66.21 5.85 66.2 5.79 66.19 5.74C65.9 5.75 65.61 5.75 65.32 5.79C64.13 5.94 62.94 6.1 61.74 6.25C60.44 6.41 59.14 6.57 57.83 6.72C57.44 6.76 57.03 6.75 56.64 6.8C55.49 6.94 54.34 7.11 53.19 7.25C52.78 7.3 52.36 7.29 51.95 7.33C50.5 7.49 49.04 7.67 47.58 7.84C47.47 7.85 47.37 7.91 47.27 7.95C47.33 8.05 47.37 8.18 47.45 8.23C47.6 8.33 47.78 8.46 47.94 8.44C48.98 8.36 50.02 8.26 51.05 8.12C52.56 7.91 54.05 7.66 55.56 7.44C56.41 7.31 57.27 7.24 58.12 7.12C59.21 6.97 60.29 6.8 61.37 6.63C62.3 6.48 63.24 6.32 64.18 6.17C64.45 6.13 64.72 6.16 64.99 6.12C65.4 6.06 65.81 5.98 66.22 5.9ZM25.51 19.66C25.31 18.95 25.48 18.76 26.18 18.91C26.96 19.07 27.74 19.24 28.52 19.4C29.55 19.61 30.58 19.8 31.61 20.03C32.88 20.32 34.14 20.64 35.4 20.94C35.61 20.99 35.83 20.94 36.05 20.94C35.79 20.79 35.53 20.68 35.26 20.6C34.81 20.47 34.35 20.37 33.91 20.24C33.18 20.02 32.46 19.79 31.73 19.58C31.01 19.37 30.28 19.17 29.55 18.96C28.84 18.75 28.14 18.53 27.43 18.31C26.9 18.15 26.37 17.99 25.85 17.83C25.6 17.76 25.39 17.73 25.31 18.06C25.21 18.52 25.09 18.98 24.99 19.44C24.96 19.53 24.96 19.63 24.95 19.74C25.16 19.71 25.34 19.68 25.51 19.66ZM35.76 9.75C36.19 9.34 36.56 8.89 37.02 8.59C37.48 8.28 38.04 8.12 38.55 7.9C38 7.09 37.12 7.15 36.55 7.56C35.86 8.06 35.51 8.97 35.76 9.75ZM17.94 12.32C17.95 12.28 17.96 12.24 17.97 12.19C17.63 12.09 17.3 11.98 16.96 11.88C16.95 11.93 16.93 11.99 16.92 12.04C17.26 12.14 17.6 12.23 17.94 12.32Z" fill="#656293" fill-opacity="1.000000" fill-rule="nonzero"/>
	<path id="Vector" d="M38.1 23.6C38.58 23.71 39.06 23.81 39.53 23.93C40 24.05 40.47 24.18 40.93 24.32C41.71 24.55 42.47 24.8 43.25 25.03C43.98 25.24 44.73 25.42 45.47 25.62C45.87 25.74 46.25 25.88 46.64 26C46.97 26.1 47.31 26.19 47.64 26.28C48.36 26.48 49.08 26.67 49.79 26.88C50.48 27.08 51.16 27.31 51.85 27.52C52.27 27.65 52.71 27.75 53.14 27.87C53.91 28.11 54.68 28.36 55.45 28.59C56.2 28.8 56.96 28.99 57.71 29.19C57.97 29.26 58.22 29.34 58.48 29.42C59.2 29.64 59.92 29.87 60.64 30.09C61.02 30.2 61.4 30.31 61.78 30.43C62.61 30.67 63.45 30.92 64.28 31.16C64.59 31.25 64.89 31.33 65.2 31.41C65.92 31.61 66.63 31.8 67.34 32.01C68.08 32.22 68.81 32.45 69.55 32.68C69.87 32.78 70.18 32.87 70.5 32.96C71.23 33.17 71.96 33.35 72.68 33.57C73.41 33.78 74.12 34.02 74.85 34.24C75.16 34.34 75.48 34.44 75.8 34.52C76.56 34.73 77.31 34.93 78.06 35.15C79.25 35.5 80.43 35.87 81.61 36.24C81.65 36.25 81.69 36.3 81.71 36.41C81.37 36.35 81.04 36.3 80.71 36.22C79.94 36.03 79.17 35.84 78.41 35.63C77.71 35.45 77.01 35.24 76.31 35.04C75.82 34.91 75.32 34.77 74.83 34.63C74.08 34.42 73.33 34.21 72.58 33.99C72.22 33.89 71.87 33.78 71.51 33.68C70.78 33.49 70.04 33.31 69.32 33.11C68.54 32.89 67.77 32.64 67 32.41C66.68 32.32 66.36 32.24 66.03 32.16C65.56 32.04 65.09 31.93 64.62 31.81C64.35 31.74 64.08 31.65 63.81 31.57C63.08 31.35 62.34 31.12 61.61 30.91C61.25 30.8 60.89 30.71 60.53 30.61C59.65 30.36 58.76 30.09 57.87 29.85C57.13 29.64 56.38 29.49 55.64 29.28C54.9 29.08 54.17 28.83 53.43 28.61C52.74 28.41 52.05 28.22 51.36 28.02C50.57 27.79 49.79 27.54 49.01 27.31C48.69 27.21 48.37 27.12 48.06 27.03C47.21 26.77 46.37 26.51 45.53 26.25C44.86 26.05 44.18 25.87 43.51 25.65C42.6 25.34 41.71 25.01 40.8 24.69C39.94 24.38 39.07 24.08 38.2 23.78C38.16 23.76 38.11 23.74 38.07 23.73C38.08 23.69 38.09 23.65 38.1 23.6Z" fill="#656293" fill-opacity="1.000000" fill-rule="nonzero"/>
	<path id="Vector" d="M39.02 22.65C39.41 22.74 39.81 22.81 40.2 22.91C40.71 23.03 41.22 23.16 41.72 23.31C42.39 23.5 43.06 23.72 43.74 23.92C44.15 24.05 44.56 24.17 44.98 24.29C45.75 24.52 46.52 24.76 47.29 24.99C47.69 25.1 48.09 25.19 48.48 25.31C49.27 25.55 50.06 25.81 50.87 26.04C51.62 26.26 52.38 26.43 53.13 26.64C53.85 26.85 54.55 27.09 55.26 27.3C55.69 27.43 56.12 27.53 56.56 27.65C56.93 27.75 57.3 27.85 57.67 27.97C58.12 28.11 58.57 28.26 59.02 28.4C59.8 28.63 60.59 28.87 61.38 29.09C62.12 29.3 62.86 29.49 63.6 29.7C64.02 29.82 64.43 29.98 64.85 30.11C65.23 30.22 65.61 30.32 65.99 30.43C66.82 30.68 67.65 30.93 68.48 31.18C68.8 31.27 69.12 31.34 69.44 31.43C70.32 31.7 71.2 31.98 72.09 32.23C72.85 32.45 73.63 32.61 74.39 32.83C75.07 33.04 75.74 33.3 76.42 33.53C76.77 33.64 77.13 33.73 77.48 33.83C77.94 33.96 78.39 34.1 78.83 34.24C78.87 34.25 78.9 34.31 78.9 34.44C78.19 34.25 77.49 34.05 76.78 33.88C76 33.68 75.21 33.52 74.43 33.31C73.66 33.11 72.91 32.87 72.14 32.66C71.71 32.54 71.27 32.45 70.84 32.34C70.39 32.21 69.95 32.05 69.49 31.92C69.09 31.81 68.68 31.71 68.27 31.6C67.43 31.37 66.6 31.13 65.76 30.9C65.42 30.81 65.07 30.72 64.72 30.63C63.36 30.27 61.99 29.92 60.63 29.54C59.9 29.34 59.19 29.08 58.47 28.86C58.14 28.76 57.81 28.69 57.47 28.6C56.79 28.41 56.11 28.22 55.44 28.03C54.65 27.8 53.87 27.55 53.08 27.32C52.75 27.22 52.42 27.13 52.08 27.04C51.06 26.76 50.03 26.5 49.01 26.2C48.05 25.91 47.11 25.57 46.16 25.27C45.5 25.06 44.83 24.87 44.18 24.66C43.59 24.47 43.02 24.26 42.44 24.06C41.78 23.83 41.11 23.61 40.46 23.36C39.96 23.17 39.48 22.93 39 22.72C39 22.7 39.01 22.67 39.02 22.65Z" fill="#656293" fill-opacity="1.000000" fill-rule="nonzero"/>
	<path id="Vector" d="M57.94 36.21C56.92 35.96 55.89 35.71 54.87 35.45C54.51 35.37 54.15 35.29 53.78 35.2C52.64 34.92 51.49 34.66 50.35 34.36C49.3 34.09 48.26 33.76 47.21 33.47C46.47 33.26 45.72 33.07 44.98 32.87C44.66 32.78 44.34 32.68 44.02 32.58C42.73 32.19 41.43 31.78 40.13 31.4C39.37 31.17 38.59 31.01 37.83 30.79C36.86 30.51 35.9 30.2 34.94 29.89C34.27 29.68 33.59 29.48 32.93 29.25C32.15 28.97 31.37 28.67 30.6 28.36C30.23 28.22 29.87 28.05 29.51 27.89C29.52 27.84 29.54 27.8 29.55 27.75C29.91 27.84 30.28 27.93 30.64 28.02C31.11 28.15 31.58 28.27 32.05 28.41C32.79 28.63 33.52 28.86 34.26 29.08C34.67 29.2 35.1 29.3 35.52 29.42C36.28 29.65 37.03 29.89 37.79 30.12C38.13 30.22 38.47 30.32 38.82 30.41C39.26 30.53 39.72 30.63 40.16 30.74C40.4 30.81 40.62 30.9 40.86 30.97C41.59 31.2 42.32 31.43 43.05 31.65C43.38 31.75 43.71 31.85 44.04 31.95C44.74 32.14 45.45 32.32 46.15 32.52C46.84 32.72 47.53 32.94 48.21 33.14C48.63 33.27 49.05 33.39 49.47 33.51C50.29 33.75 51.11 34 51.93 34.24C52.25 34.34 52.57 34.43 52.89 34.52C53.62 34.72 54.36 34.89 55.07 35.12C55.8 35.35 56.51 35.64 57.23 35.89C57.47 35.97 57.73 36 57.98 36.06C57.96 36.11 57.95 36.16 57.94 36.21Z" fill="#656293" fill-opacity="1.000000" fill-rule="nonzero"/>
	<path id="Vector" d="M95.84 5.74C98.53 6.38 101.17 7.22 103.82 7.98C106.48 8.74 109.11 9.58 111.75 10.38C111.74 10.42 111.73 10.46 111.72 10.5C111.53 10.47 111.33 10.44 111.14 10.4C110.74 10.32 110.35 10.22 109.95 10.14C109.45 10.02 108.95 9.93 108.45 9.8C107.98 9.69 107.52 9.54 107.05 9.41C106.59 9.29 106.12 9.2 105.66 9.08C104.75 8.85 103.85 8.62 102.95 8.38C102.2 8.18 101.46 7.98 100.73 7.77C100.45 7.69 100.18 7.6 99.92 7.51C98.96 7.16 98 6.82 97.04 6.45C96.62 6.29 96.22 6.07 95.81 5.87C95.82 5.83 95.83 5.78 95.84 5.74Z" fill="#656293" fill-opacity="1.000000" fill-rule="nonzero"/>
</svg>
