<svg width="45" height="44" viewBox="0 0 45 44" fill="none" xmlns="http://www.w3.org/2000/svg">
<rect x="1.34961" y="0.5" width="43" height="43" rx="21.5" stroke="#5B99FA"/>
<path d="M31.1829 26.1667H14.5163C14.2953 26.1667 14.0833 26.2545 13.927 26.4107C13.7707 26.567 13.6829 26.779 13.6829 27C13.6829 27.221 13.7707 27.433 13.927 27.5892C14.0833 27.7455 14.2953 27.8333 14.5163 27.8333H31.1829C31.404 27.8333 31.6159 27.7455 31.7722 27.5892C31.9285 27.433 32.0163 27.221 32.0163 27C32.0163 26.779 31.9285 26.567 31.7722 26.4107C31.6159 26.2545 31.404 26.1667 31.1829 26.1667ZM31.1829 29.5H14.5163C14.2953 29.5 14.0833 29.5878 13.927 29.7441C13.7707 29.9004 13.6829 30.1123 13.6829 30.3333C13.6829 30.5543 13.7707 30.7663 13.927 30.9226C14.0833 31.0789 14.2953 31.1667 14.5163 31.1667H31.1829C31.404 31.1667 31.6159 31.0789 31.7722 30.9226C31.9285 30.7663 32.0163 30.5543 32.0163 30.3333C32.0163 30.1123 31.9285 29.9004 31.7722 29.7441C31.6159 29.5878 31.404 29.5 31.1829 29.5ZM17.8496 17.8333C17.6848 17.8333 17.5237 17.8822 17.3866 17.9738C17.2496 18.0653 17.1428 18.1955 17.0797 18.3478C17.0166 18.5 17.0001 18.6676 17.0323 18.8292C17.0644 18.9909 17.1438 19.1394 17.2604 19.2559C17.3769 19.3725 17.5254 19.4518 17.687 19.484C17.8487 19.5161 18.0162 19.4996 18.1685 19.4366C18.3208 19.3735 18.4509 19.2667 18.5425 19.1296C18.6341 18.9926 18.6829 18.8315 18.6829 18.6667C18.6829 18.4456 18.5951 18.2337 18.4389 18.0774C18.2826 17.9211 18.0706 17.8333 17.8496 17.8333ZM29.5163 12.8333H16.1829C15.5199 12.8333 14.884 13.0967 14.4152 13.5656C13.9463 14.0344 13.6829 14.6703 13.6829 15.3333V22C13.6829 22.663 13.9463 23.2989 14.4152 23.7678C14.884 24.2366 15.5199 24.5 16.1829 24.5H29.5163C30.1793 24.5 30.8152 24.2366 31.284 23.7678C31.7529 23.2989 32.0163 22.663 32.0163 22V15.3333C32.0163 14.6703 31.7529 14.0344 31.284 13.5656C30.8152 13.0967 30.1793 12.8333 29.5163 12.8333ZM30.3496 22C30.3496 22.221 30.2618 22.433 30.1055 22.5892C29.9493 22.7455 29.7373 22.8333 29.5163 22.8333H16.1829C15.9619 22.8333 15.75 22.7455 15.5937 22.5892C15.4374 22.433 15.3496 22.221 15.3496 22V15.3333C15.3496 15.1123 15.4374 14.9004 15.5937 14.7441C15.75 14.5878 15.9619 14.5 16.1829 14.5H29.5163C29.7373 14.5 29.9493 14.5878 30.1055 14.7441C30.2618 14.9004 30.3496 15.1123 30.3496 15.3333V22ZM22.8496 16.1667C22.3552 16.1667 21.8718 16.3133 21.4607 16.588C21.0496 16.8627 20.7291 17.2531 20.5399 17.71C20.3507 18.1668 20.3012 18.6694 20.3976 19.1544C20.4941 19.6393 20.7322 20.0848 21.0818 20.4344C21.4315 20.7841 21.8769 21.0222 22.3619 21.1186C22.8468 21.2151 23.3495 21.1656 23.8063 20.9764C24.2631 20.7871 24.6536 20.4667 24.9283 20.0556C25.203 19.6445 25.3496 19.1611 25.3496 18.6667C25.3496 18.0036 25.0862 17.3677 24.6174 16.8989C24.1485 16.4301 23.5127 16.1667 22.8496 16.1667ZM22.8496 19.5C22.6848 19.5 22.5237 19.4511 22.3866 19.3596C22.2496 19.268 22.1428 19.1378 22.0797 18.9856C22.0166 18.8333 22.0001 18.6657 22.0323 18.5041C22.0644 18.3424 22.1438 18.1939 22.2604 18.0774C22.3769 17.9609 22.5254 17.8815 22.687 17.8493C22.8487 17.8172 23.0162 17.8337 23.1685 17.8968C23.3208 17.9598 23.4509 18.0666 23.5425 18.2037C23.6341 18.3407 23.6829 18.5018 23.6829 18.6667C23.6829 18.8877 23.5951 19.0996 23.4389 19.2559C23.2826 19.4122 23.0706 19.5 22.8496 19.5ZM27.8496 17.8333C27.6848 17.8333 27.5237 17.8822 27.3866 17.9738C27.2496 18.0653 27.1428 18.1955 27.0797 18.3478C27.0166 18.5 27.0001 18.6676 27.0323 18.8292C27.0644 18.9909 27.1438 19.1394 27.2604 19.2559C27.3769 19.3725 27.5254 19.4518 27.687 19.484C27.8487 19.5161 28.0162 19.4996 28.1685 19.4366C28.3208 19.3735 28.4509 19.2667 28.5425 19.1296C28.6341 18.9926 28.6829 18.8315 28.6829 18.6667C28.6829 18.4456 28.5951 18.2337 28.4389 18.0774C28.2826 17.9211 28.0706 17.8333 27.8496 17.8333Z" fill="white"/>
</svg>
