<svg width="18" height="18" viewBox="0 0 18 18" fill="none" xmlns="http://www.w3.org/2000/svg">
<path d="M16.3496 2.33334H13.8496V1.50001C13.8496 1.27899 13.7618 1.06703 13.6056 0.910749C13.4493 0.754469 13.2373 0.666672 13.0163 0.666672H4.68296C4.46195 0.666672 4.24999 0.754469 4.09371 0.910749C3.93743 1.06703 3.84963 1.27899 3.84963 1.50001V2.33334H1.34963C1.12862 2.33334 0.916654 2.42114 0.760374 2.57742C0.604094 2.7337 0.516296 2.94566 0.516296 3.16667V5.66667C0.516296 6.55073 0.867486 7.39857 1.49261 8.02369C2.11773 8.64882 2.96557 9.00001 3.84963 9.00001H5.13296C5.88674 9.84096 6.90301 10.402 8.0163 10.5917V12.3333H7.18296C6.51992 12.3333 5.88404 12.5967 5.4152 13.0656C4.94636 13.5344 4.68296 14.1703 4.68296 14.8333V16.5C4.68296 16.721 4.77076 16.933 4.92704 17.0893C5.08332 17.2455 5.29528 17.3333 5.5163 17.3333H12.183C12.404 17.3333 12.6159 17.2455 12.7722 17.0893C12.9285 16.933 13.0163 16.721 13.0163 16.5V14.8333C13.0163 14.1703 12.7529 13.5344 12.2841 13.0656C11.8152 12.5967 11.1793 12.3333 10.5163 12.3333H9.68296V10.5917C10.7962 10.402 11.8125 9.84096 12.5663 9.00001H13.8496C14.7337 9.00001 15.5815 8.64882 16.2067 8.02369C16.8318 7.39857 17.183 6.55073 17.183 5.66667V3.16667C17.183 2.94566 17.0952 2.7337 16.9389 2.57742C16.7826 2.42114 16.5706 2.33334 16.3496 2.33334ZM3.84963 7.33334C3.4076 7.33334 2.98368 7.15774 2.67112 6.84518C2.35856 6.53262 2.18296 6.1087 2.18296 5.66667V4.00001H3.84963V5.66667C3.85146 6.23476 3.9501 6.79839 4.1413 7.33334H3.84963ZM10.5163 14C10.7373 14 10.9493 14.0878 11.1056 14.2441C11.2618 14.4004 11.3496 14.6123 11.3496 14.8333V15.6667H6.34963V14.8333C6.34963 14.6123 6.43743 14.4004 6.59371 14.2441C6.74999 14.0878 6.96195 14 7.18296 14H10.5163ZM12.183 5.66667C12.183 6.55073 11.8318 7.39857 11.2067 8.02369C10.5815 8.64882 9.73369 9.00001 8.84963 9.00001C7.96558 9.00001 7.11773 8.64882 6.49261 8.02369C5.86749 7.39857 5.5163 6.55073 5.5163 5.66667V2.33334H12.183V5.66667ZM15.5163 5.66667C15.5163 6.1087 15.3407 6.53262 15.0281 6.84518C14.7156 7.15774 14.2917 7.33334 13.8496 7.33334H13.558C13.7492 6.79839 13.8478 6.23476 13.8496 5.66667V4.00001H15.5163V5.66667Z" fill="url(#paint0_linear_3_184)"/>
<defs>
<linearGradient id="paint0_linear_3_184" x1="65.8503" y1="39" x2="68.9201" y2="-1.27845" gradientUnits="userSpaceOnUse">
<stop stop-color="#0103FF"/>
<stop offset="1" stop-color="#01E4FF"/>
</linearGradient>
</defs>
</svg>
