<svg width="149" height="58" viewBox="0 0 149 58" fill="none" xmlns="http://www.w3.org/2000/svg">
<path d="M81.4247 28.4C81.4247 20.984 75.5567 15.296 68.3207 15.296C61.0847 15.296 55.2167 20.984 55.2167 28.4C55.2167 35.816 61.0847 41.504 68.3207 41.504C70.4447 41.504 72.4607 41 74.2247 40.136L76.9247 42.98L81.0647 39.308L78.5447 36.644C80.3447 34.412 81.4247 31.568 81.4247 28.4ZM68.3207 35.888C64.2167 35.888 60.9767 32.9 60.9767 28.4C60.9767 23.9 64.2167 20.912 68.3207 20.912C72.4247 20.912 75.6647 23.9 75.6647 28.4C75.6647 29.948 75.2687 31.316 74.6207 32.468L70.5887 28.184L66.4487 31.856L70.0847 35.708C69.5087 35.816 68.9327 35.888 68.3207 35.888ZM90.2075 34.16H102.988C103.132 33.476 103.204 32.756 103.204 32C103.204 26.564 99.3155 22.496 94.0595 22.496C88.3715 22.496 84.4835 26.636 84.4835 32C84.4835 37.364 88.2995 41.504 94.4555 41.504C97.8755 41.504 100.54 40.244 102.304 37.796L97.9835 35.312C97.2635 36.104 96.0035 36.68 94.5275 36.68C92.5475 36.68 90.8915 36.032 90.2075 34.16ZM90.0995 30.128C90.6035 28.292 91.9715 27.284 94.0235 27.284C95.6435 27.284 97.2635 28.04 97.8395 30.128H90.0995ZM111.635 34.16H124.415C124.559 33.476 124.631 32.756 124.631 32C124.631 26.564 120.743 22.496 115.487 22.496C109.799 22.496 105.911 26.636 105.911 32C105.911 37.364 109.727 41.504 115.883 41.504C119.303 41.504 121.967 40.244 123.731 37.796L119.411 35.312C118.691 36.104 117.431 36.68 115.955 36.68C113.975 36.68 112.319 36.032 111.635 34.16ZM111.527 30.128C112.031 28.292 113.399 27.284 115.451 27.284C117.071 27.284 118.691 28.04 119.267 30.128H111.527ZM139.177 22.496C136.765 22.496 135.001 23.324 133.813 24.692V15.8H128.413V41H133.813V39.308C135.001 40.676 136.765 41.504 139.177 41.504C143.893 41.504 147.781 37.364 147.781 32C147.781 26.636 143.893 22.496 139.177 22.496ZM138.097 36.392C135.613 36.392 133.813 34.7 133.813 32C133.813 29.3 135.613 27.608 138.097 27.608C140.581 27.608 142.381 29.3 142.381 32C142.381 34.7 140.581 36.392 138.097 36.392Z" fill="white"/>
<path d="M26.8916 7.70337L38.9197 28.395H14.8634L26.8916 7.70337Z" fill="white"/>
<path d="M13.8916 29.5537L25.9197 50.2453H1.86344L13.8916 29.5537Z" fill="white"/>
<path d="M38.9052 29.5133L26.7576 50.136L14.8493 29.3761L38.9052 29.5133Z" fill="white"/>
<path d="M13.8916 28.3385L1.86145 7.64801L25.9177 7.64572L13.8916 28.3385Z" fill="#52FFE0"/>
</svg>
