<svg width="10" height="10" viewBox="0 0 10 10" fill="none" xmlns="http://www.w3.org/2000/svg">
<path d="M9.93334 0.516667C9.84878 0.313042 9.68697 0.151229 9.48334 0.0666666C9.38316 0.0239658 9.27557 0.00131666 9.16668 0H0.833343C0.61233 0 0.400368 0.0877975 0.244088 0.244078C0.0878077 0.400358 1.01719e-05 0.61232 1.01719e-05 0.833333C1.01719e-05 1.05435 0.0878077 1.26631 0.244088 1.42259C0.400368 1.57887 0.61233 1.66667 0.833343 1.66667H7.15834L0.241677 8.575C0.16357 8.65247 0.101575 8.74464 0.0592675 8.84619C0.0169603 8.94774 -0.00482178 9.05666 -0.00482178 9.16667C-0.00482178 9.27668 0.0169603 9.3856 0.0592675 9.48715C0.101575 9.5887 0.16357 9.68086 0.241677 9.75833C0.319146 9.83644 0.411313 9.89844 0.512863 9.94074C0.614412 9.98305 0.723334 10.0048 0.833343 10.0048C0.943353 10.0048 1.05227 9.98305 1.15382 9.94074C1.25537 9.89844 1.34754 9.83644 1.42501 9.75833L8.33334 2.84167V9.16667C8.33334 9.38768 8.42114 9.59964 8.57742 9.75592C8.7337 9.9122 8.94566 10 9.16668 10C9.38769 10 9.59965 9.9122 9.75593 9.75592C9.91221 9.59964 10 9.38768 10 9.16667V0.833333C9.99869 0.724436 9.97604 0.616852 9.93334 0.516667Z" fill="#0A0B5C"/>
</svg>
