<svg width="114" height="44" viewBox="0 0 114 44" fill="none" xmlns="http://www.w3.org/2000/svg">
<path d="M22.0027 36.9206C13.76 36.9209 7.07997 30.2409 7.08027 21.9981C7.08058 13.7554 13.7611 7.07488 22.0038 7.07457C30.2466 7.07426 36.9266 13.7543 36.9263 21.997C36.9261 26.1161 35.2553 29.8486 32.556 32.548C29.8566 35.2473 26.1241 36.9181 22.005 36.9183M16.0946 2.66117L13.8393 6.9276C12.2836 9.87314 9.87424 12.2825 6.9287 13.8382L2.66227 16.0935C1.5761 16.6688 0.89492 17.7964 0.894875 19.0253L0.894653 24.976C0.894608 26.2049 1.57341 27.3347 2.66183 27.9077L6.92809 30.1626C9.87351 31.7181 12.2827 34.1273 13.8382 37.0727L16.0932 41.339C16.6684 42.4251 17.796 43.1062 19.0248 43.1062L24.9756 43.106C26.2044 43.1059 27.3343 42.427 27.9073 41.3386L30.1626 37.0721C31.7183 34.1266 34.1277 31.7172 37.0732 30.1615L41.3397 27.9062C42.4258 27.3309 43.107 26.2033 43.1071 24.9745L43.1073 19.0237C43.1073 17.7949 42.4262 16.6673 41.3401 16.0921L37.0738 13.8371C34.1284 12.2816 31.7192 9.87241 30.1637 6.92699L27.9088 2.66073C27.3335 1.57461 26.206 0.893508 24.9771 0.893555L19.0264 0.893773C18.1335 0.893806 17.2936 1.25052 16.6791 1.86495C16.449 2.09507 16.2511 2.36202 16.0923 2.65887" fill="#0A0B5C"/>
<path d="M104.707 32.4198C102.817 32.4198 101.137 31.9881 99.6667 31.1248C98.22 30.2381 97.0884 29.0481 96.2717 27.5548C95.455 26.0381 95.0467 24.3464 95.0467 22.4798C95.0467 20.5664 95.455 18.8748 96.2717 17.4048C97.1117 15.9348 98.2317 14.7798 99.6317 13.9398C101.032 13.0764 102.618 12.6448 104.392 12.6448C105.815 12.6448 107.087 12.8898 108.207 13.3798C109.327 13.8698 110.272 14.5464 111.042 15.4098C111.812 16.2498 112.395 17.2181 112.792 18.3148C113.212 19.4114 113.422 20.5781 113.422 21.8148C113.422 22.1181 113.41 22.4331 113.387 22.7598C113.363 23.0864 113.317 23.3898 113.247 23.6698H98.1617V20.5198H111.007L109.117 21.9548C109.35 20.8114 109.268 19.7964 108.872 18.9098C108.498 17.9998 107.915 17.2881 107.122 16.7748C106.352 16.2381 105.442 15.9698 104.392 15.9698C103.342 15.9698 102.408 16.2381 101.592 16.7748C100.775 17.2881 100.145 18.0348 99.7017 19.0148C99.2584 19.9714 99.0834 21.1381 99.1767 22.5148C99.06 23.7981 99.235 24.9181 99.7017 25.8748C100.192 26.8314 100.868 27.5781 101.732 28.1148C102.618 28.6514 103.622 28.9198 104.742 28.9198C105.885 28.9198 106.853 28.6631 107.647 28.1498C108.463 27.6364 109.105 26.9714 109.572 26.1548L112.792 27.7298C112.418 28.6164 111.835 29.4214 111.042 30.1448C110.272 30.8448 109.338 31.4048 108.242 31.8248C107.168 32.2214 105.99 32.4198 104.707 32.4198Z" fill="#0A0B5C"/>
<path d="M84.5103 31.9999L77.0903 13.0649H81.3953L87.1003 28.4999H85.5253L91.2303 13.0649H95.5703L88.1153 31.9999H84.5103Z" fill="#0A0B5C"/>
<path d="M72.5362 31.9999V5.50488H76.4912V31.9999H72.5362Z" fill="#0A0B5C"/>
<path d="M60.905 32.4198C59.085 32.4198 57.4167 31.9881 55.9 31.1248C54.4067 30.2614 53.2167 29.0831 52.33 27.5898C51.4433 26.0964 51 24.4048 51 22.5148C51 20.6014 51.4433 18.9098 52.33 17.4398C53.2167 15.9464 54.4067 14.7798 55.9 13.9398C57.3933 13.0764 59.0617 12.6448 60.905 12.6448C62.7717 12.6448 64.44 13.0764 65.91 13.9398C67.4033 14.7798 68.5817 15.9464 69.445 17.4398C70.3317 18.9098 70.775 20.6014 70.775 22.5148C70.775 24.4281 70.3317 26.1314 69.445 27.6248C68.5583 29.1181 67.3683 30.2964 65.875 31.1598C64.3817 31.9998 62.725 32.4198 60.905 32.4198ZM60.905 28.7448C62.025 28.7448 63.0167 28.4764 63.88 27.9398C64.7433 27.4031 65.42 26.6681 65.91 25.7348C66.4233 24.7781 66.68 23.7048 66.68 22.5148C66.68 21.3248 66.4233 20.2631 65.91 19.3298C65.42 18.3964 64.7433 17.6614 63.88 17.1248C63.0167 16.5881 62.025 16.3198 60.905 16.3198C59.8083 16.3198 58.8167 16.5881 57.93 17.1248C57.0667 17.6614 56.3783 18.3964 55.865 19.3298C55.375 20.2631 55.13 21.3248 55.13 22.5148C55.13 23.7048 55.375 24.7781 55.865 25.7348C56.3783 26.6681 57.0667 27.4031 57.93 27.9398C58.8167 28.4764 59.8083 28.7448 60.905 28.7448Z" fill="#0A0B5C"/>
</svg>
