<svg width="44" height="44" viewBox="0 0 44 44" fill="none" xmlns="http://www.w3.org/2000/svg">
<path d="M22.0027 36.9206C13.76 36.9209 7.07997 30.2409 7.08027 21.9981C7.08058 13.7554 13.7611 7.07488 22.0038 7.07457C30.2466 7.07426 36.9266 13.7543 36.9263 21.997C36.9261 26.1161 35.2553 29.8486 32.556 32.548C29.8566 35.2473 26.1241 36.9181 22.005 36.9183M16.0946 2.66117L13.8393 6.9276C12.2836 9.87314 9.87424 12.2825 6.9287 13.8382L2.66227 16.0935C1.5761 16.6688 0.89492 17.7964 0.894875 19.0253L0.894653 24.976C0.894608 26.2049 1.57341 27.3347 2.66183 27.9077L6.92809 30.1626C9.87351 31.7181 12.2827 34.1273 13.8382 37.0727L16.0932 41.339C16.6684 42.4251 17.796 43.1062 19.0248 43.1062L24.9756 43.106C26.2044 43.1059 27.3343 42.427 27.9073 41.3386L30.1626 37.0721C31.7183 34.1266 34.1277 31.7172 37.0732 30.1615L41.3397 27.9062C42.4258 27.3309 43.107 26.2033 43.1071 24.9745L43.1073 19.0237C43.1073 17.7949 42.4262 16.6673 41.3401 16.0921L37.0738 13.8371C34.1284 12.2816 31.7192 9.87241 30.1637 6.92699L27.9088 2.66073C27.3335 1.57461 26.206 0.893508 24.9771 0.893555L19.0264 0.893773C18.1335 0.893806 17.2936 1.25052 16.6791 1.86495C16.449 2.09507 16.2511 2.36202 16.0923 2.65887" fill="#0A0B5C"/>
</svg>
